<svg width="82" height="31" viewBox="0 0 82 31" fill="none" xmlns="http://www.w3.org/2000/svg">
<path d="M5.65341 30H0.994318L11.4631 0.90909H16.5341L27.0028 30H22.3438L14.1193 6.19318H13.892L5.65341 30ZM6.43466 18.608H21.5483V22.3011H6.43466V18.608ZM31.2038 30V0.90909H41.8572C43.9216 0.90909 45.6309 1.25 46.9851 1.93182C48.3393 2.60417 49.3525 3.51799 50.0249 4.6733C50.6972 5.81913 51.0334 7.11174 51.0334 8.55114C51.0334 9.76326 50.8108 10.786 50.3658 11.6193C49.9207 12.4432 49.3241 13.1061 48.576 13.608C47.8374 14.1004 47.023 14.4602 46.1328 14.6875V14.9716C47.0987 15.0189 48.041 15.3314 48.9595 15.9091C49.8875 16.4773 50.6546 17.2869 51.2607 18.3381C51.8667 19.3892 52.1697 20.6676 52.1697 22.1733C52.1697 23.66 51.8194 24.9953 51.1186 26.179C50.4273 27.3532 49.3572 28.286 47.9084 28.9773C46.4595 29.6591 44.6082 30 42.3544 30H31.2038ZM35.593 26.2358H41.9283C44.0305 26.2358 45.5362 25.8286 46.4453 25.0142C47.3544 24.1998 47.8089 23.1818 47.8089 21.9602C47.8089 21.0417 47.5769 20.1989 47.1129 19.4318C46.6489 18.6648 45.986 18.054 45.1243 17.5994C44.272 17.1449 43.2588 16.9176 42.0845 16.9176H35.593V26.2358ZM35.593 13.4943H41.4737C42.4586 13.4943 43.344 13.3049 44.13 12.9261C44.9254 12.5473 45.5552 12.017 46.0192 11.3352C46.4927 10.6439 46.7294 9.82955 46.7294 8.89205C46.7294 7.68939 46.308 6.68087 45.4652 5.86648C44.6224 5.05208 43.3298 4.64489 41.5874 4.64489H35.593V13.4943ZM81.5376 10.3693H77.1058C76.9354 9.42235 76.6181 8.58901 76.1541 7.86932C75.6901 7.14962 75.1219 6.53883 74.4496 6.03693C73.7772 5.53504 73.0244 5.15625 72.1911 4.90057C71.3672 4.64489 70.4912 4.51705 69.5632 4.51705C67.8871 4.51705 66.3861 4.93845 65.0604 5.78125C63.7441 6.62405 62.7024 7.85985 61.9354 9.48864C61.1778 11.1174 60.799 13.1061 60.799 15.4545C60.799 17.822 61.1778 19.8201 61.9354 21.4489C62.7024 23.0777 63.7488 24.3087 65.0746 25.142C66.4003 25.9754 67.8918 26.392 69.549 26.392C70.4676 26.392 71.3388 26.2689 72.1626 26.0227C72.996 25.767 73.7488 25.393 74.4212 24.9006C75.0935 24.4081 75.6617 23.8068 76.1257 23.0966C76.5992 22.3769 76.9259 21.553 77.1058 20.625L81.5376 20.6392C81.3009 22.0691 80.8416 23.3854 80.1598 24.5881C79.4875 25.7812 78.621 26.8134 77.5604 27.6847C76.5092 28.5464 75.3066 29.214 73.9524 29.6875C72.5982 30.161 71.121 30.3977 69.5206 30.3977C67.0017 30.3977 64.7573 29.8011 62.7876 28.608C60.8179 27.4053 59.2649 25.6866 58.1286 23.4517C57.0017 21.2169 56.4382 18.5511 56.4382 15.4545C56.4382 12.3485 57.0064 9.68276 58.1428 7.45739C59.2791 5.22254 60.8321 3.50852 62.8018 2.31534C64.7715 1.11269 67.0111 0.511363 69.5206 0.511363C71.0642 0.511363 72.5036 0.733901 73.8388 1.17898C75.1835 1.61458 76.3909 2.25852 77.4609 3.1108C78.531 3.9536 79.4164 4.9858 80.1172 6.20739C80.8179 7.41951 81.2914 8.80682 81.5376 10.3693Z" fill="white"/>
</svg>
