<svg width="40" height="40" viewBox="0 0 40 40" fill="none" xmlns="http://www.w3.org/2000/svg">
<path d="M6.75 17.4063V9.09874L20 4.46124L33.25 9.09874V18.7535C33.25 22.5496 31.9191 26.2255 29.489 29.1417C28.1073 30.7997 26.4087 32.1654 24.4927 33.1589L20.1435 35.4141C20.0674 35.4535 19.9764 35.4513 19.9024 35.4081L15.6724 32.9406C14.2113 32.0883 12.8777 31.0341 11.7111 29.8091C8.52637 26.4652 6.75 22.0242 6.75 17.4063Z" stroke="white" stroke-width="1.5"/>
<path d="M16.4445 17.3909V18.4433C16.4445 20.1446 17.833 21.5296 19.5423 21.5296H20.447C22.1564 21.5296 23.5502 20.1446 23.5502 18.4433V17.4235C23.7975 17.3199 24.0079 17.1399 24.1235 16.8837C24.2919 16.5183 24.2444 16.1148 24.0236 15.8314L23.8395 15.5423V13.6775C23.8395 12.9796 23.5082 12.7451 23.161 12.4997C23.0927 12.4506 23.019 12.4016 22.9138 12.3143C22.4614 11.9654 21.925 11.7308 21.3622 11.6327L20.5101 11.4909C20.1209 11.4254 19.7264 11.4309 19.3372 11.4964L18.6535 11.6218C18.0855 11.7253 17.5436 11.9707 17.0913 12.3361C17.0071 12.4016 16.9335 12.4561 16.8652 12.5052C16.5339 12.7505 16.2235 12.9795 16.2235 13.6557V15.5915L16.1026 15.7714C15.8396 16.0822 15.7765 16.5075 15.9395 16.8729C16.0446 17.1019 16.2235 17.2819 16.4444 17.3909L16.4445 17.3909ZM22.8772 15.4933L23.3822 16.3167C23.4348 16.3875 23.4454 16.464 23.4138 16.5403C23.3769 16.6166 23.2929 16.6984 23.1508 16.7093L20.9364 16.1258C20.3053 15.9568 19.6425 15.9622 19.0167 16.1368L16.9181 16.7148C16.776 16.6985 16.692 16.6167 16.6551 16.5403C16.6182 16.4585 16.6341 16.3822 16.7183 16.2786L17.2548 15.4934C19.4952 14.7572 22.2145 15.3352 22.8773 15.4933L22.8772 15.4933ZM20.4525 20.7171H19.5478C18.2749 20.7171 17.2388 19.6973 17.2388 18.4487V17.4672L19.2269 16.9219C19.7213 16.7856 20.2473 16.7801 20.7469 16.9164L22.7666 17.4507V18.4485C22.7614 19.6973 21.7253 20.717 20.4525 20.717L20.4525 20.7171ZM17.3177 13.1813C17.3966 13.1268 17.4808 13.0613 17.5702 12.9904C17.9226 12.7069 18.3434 12.5107 18.7852 12.4342L19.4689 12.3088C19.7688 12.2543 20.0791 12.2543 20.3788 12.3034L21.2309 12.4452C21.6674 12.516 22.083 12.7015 22.4616 12.9959C22.5511 13.0668 22.6352 13.1213 22.7089 13.1758C23.0139 13.3939 23.0455 13.4157 23.0455 13.6775V14.6973C22.3038 14.5119 19.4533 13.9066 17.0074 14.7136V13.6558C17.0127 13.4049 17.039 13.3831 17.3177 13.1813L17.3177 13.1813Z" fill="white" stroke="white" stroke-width="0.5"/>
<path d="M22.7452 22.4574H17.2541C15.3396 22.4574 13.7773 24.0715 13.7773 26.0619V26.5908C13.7773 26.8144 13.9561 26.9998 14.1718 26.9998C14.3875 26.9998 14.5663 26.8144 14.5663 26.5908V26.0619C14.5663 24.5296 15.7707 23.2754 17.254 23.2754H22.7451C24.2284 23.2754 25.4328 24.5241 25.4328 26.0619V26.5908C25.4328 26.8144 25.6116 26.9998 25.8273 26.9998C26.043 26.9998 26.2218 26.8144 26.2218 26.5908V26.0619C26.2166 24.0716 24.6597 22.4574 22.7453 22.4574H22.7452Z" fill="white" stroke="white" stroke-width="0.5"/>
</svg>
