<svg width="40" height="40" viewBox="0 0 40 40" fill="none" xmlns="http://www.w3.org/2000/svg">
<path d="M18.8696 29.1107C12.5391 30.6396 7 26.8175 7 20.7573C7 13.8221 14.1217 9.99995 19.6609 12.2932" stroke="white" stroke-width="1.5" stroke-linecap="round"/>
<path d="M29.9852 24.2859V16.8573C29.9852 14.6482 28.1943 12.8573 25.9852 12.8573H21.9272C19.7181 12.8573 17.9272 14.6482 17.9272 16.8573V24.2859" stroke="white" stroke-width="1.5"/>
<rect x="15.6631" y="25.0359" width="16.587" height="2.07143" rx="1.03571" stroke="white" stroke-width="1.5"/>
<path d="M25.4637 12.8571V11.5072C25.4637 10.6748 24.7889 10 23.9565 10V10C23.124 10 22.4492 10.6748 22.4492 11.5072V12.8571" stroke="white" stroke-width="1.5"/>
<path d="M26.9709 27.1428C26.9709 28.7208 25.6212 30 23.9564 30C22.2915 30 20.9419 28.7208 20.9419 27.1428" stroke="white" stroke-width="1.5"/>
<path d="M11.7476 20.7021H14.1215H16.2737" stroke="white" stroke-width="1.5" stroke-linecap="round"/>
<path d="M16.2739 16.6305L16.2739 19.2827L16.2739 20.6088" stroke="white" stroke-width="1.5" stroke-linecap="round"/>
</svg>
