<svg width="14" height="15" viewBox="0 0 14 15" fill="none" xmlns="http://www.w3.org/2000/svg">
<rect y="0.5" width="14" height="14" rx="2" fill="#005188"/>
<rect x="11" y="3.5" width="2" height="8" rx="0.5" transform="rotate(90 11 3.5)" fill="white"/>
<path d="M10.5 6.5C10.7761 6.5 11 6.72386 11 7L11 8C11 8.27614 10.7761 8.5 10.5 8.5L3.5 8.5C3.22386 8.5 3 8.27614 3 8L3 7C3 6.72386 3.22386 6.5 3.5 6.5L10.5 6.5Z" fill="white"/>
<path d="M10.5 9.5C10.7761 9.5 11 9.72386 11 10L11 11C11 11.2761 10.7761 11.5 10.5 11.5L3.5 11.5C3.22386 11.5 3 11.2761 3 11L3 10C3 9.72386 3.22386 9.5 3.5 9.5L10.5 9.5Z" fill="white"/>
</svg>
