<svg width="22" height="22" viewBox="0 0 22 22" fill="none" xmlns="http://www.w3.org/2000/svg">
<path d="M15.9499 8.58005V12.98C15.9499 14.74 16.5002 15.9131 17.5999 16.5H4.3999C5.49963 15.9131 6.0499 14.74 6.0499 12.98V8.58005C6.0499 7.17971 6.57142 5.83672 7.49972 4.84653C8.42803 3.85633 9.68708 3.30005 10.9999 3.30005C12.3127 3.30005 13.5718 3.85633 14.5001 4.84653C15.4284 5.83672 15.9499 7.17971 15.9499 8.58005Z" stroke="#001429" stroke-width="2" stroke-linecap="round" stroke-linejoin="round"/>
<path d="M8.7998 16.5C8.7998 17.0835 9.03159 17.6431 9.44417 18.0556C9.85675 18.4682 10.4163 18.7 10.9998 18.7C11.5833 18.7 12.1429 18.4682 12.5554 18.0556C12.968 17.6431 13.1998 17.0835 13.1998 16.5" stroke="#001429" stroke-width="2" stroke-linecap="round" stroke-linejoin="round"/>
</svg>
