<svg width="14" height="15" viewBox="0 0 14 15" fill="none" xmlns="http://www.w3.org/2000/svg">
<rect y="0.5" width="14" height="14" rx="2" fill="#8A8A8A"/>
<path d="M10.6464 9.8132C10.8417 10.0085 10.8417 10.325 10.6464 10.5203L10.0202 11.1465C9.82497 11.3418 9.50839 11.3418 9.31313 11.1465L3.35363 5.18702C3.15837 4.99176 3.15837 4.67518 3.35363 4.47992L3.97985 3.8537C4.17511 3.65844 4.49169 3.65844 4.68695 3.8537L10.6464 9.8132Z" fill="white"/>
<path d="M4.68705 11.1463C4.49179 11.3416 4.1752 11.3416 3.97994 11.1463L3.35373 10.5201C3.15847 10.3248 3.15847 10.0083 3.35373 9.813L9.31322 3.85351C9.50848 3.65825 9.82507 3.65825 10.0203 3.85351L10.6465 4.47972C10.8418 4.67499 10.8418 4.99157 10.6465 5.18683L4.68705 11.1463Z" fill="white"/>
</svg>
