<svg width="24" height="24" viewBox="0 0 24 24" fill="none" xmlns="http://www.w3.org/2000/svg">
<path d="M8.94274 10.6551V11.5497C8.94274 12.996 10.1366 14.1733 11.6063 14.1733H12.3842C13.854 14.1733 15.0525 12.996 15.0525 11.5497V10.6828C15.2651 10.5947 15.446 10.4417 15.5454 10.2239C15.6902 9.91327 15.6494 9.57028 15.4595 9.32931L15.3012 9.08357V7.49831C15.3012 6.90502 15.0164 6.70562 14.7178 6.49703C14.6591 6.45533 14.5957 6.41363 14.5052 6.33944C14.1163 6.0428 13.6551 5.8434 13.1711 5.76001L12.4384 5.63947C12.1038 5.5838 11.7646 5.58846 11.43 5.64413L10.8421 5.7507C10.3537 5.83875 9.8878 6.04734 9.49885 6.35797C9.42647 6.41364 9.36317 6.45999 9.30442 6.50169C9.01956 6.71028 8.75274 6.90492 8.75274 7.47979V9.12537L8.64876 9.2783C8.42264 9.54256 8.36832 9.90408 8.50855 10.2147C8.59889 10.4093 8.75274 10.5624 8.94262 10.6551L8.94274 10.6551ZM14.4738 9.04189L14.908 9.74187C14.9532 9.80209 14.9623 9.86707 14.9352 9.93194C14.9035 9.99682 14.8312 10.0663 14.709 10.0757L12.8051 9.57962C12.2624 9.4359 11.6925 9.44055 11.1544 9.58893L9.34993 10.0803C9.22778 10.0664 9.15551 9.99692 9.12381 9.93194C9.09211 9.8624 9.10574 9.79753 9.17812 9.70948L9.63946 9.042C11.5658 8.41611 13.904 8.90749 14.4738 9.0419L14.4738 9.04189ZM12.3889 13.4826H11.611C10.5165 13.4826 9.6257 12.6158 9.6257 11.5543V10.7199L11.3351 10.2563C11.7602 10.1405 12.2125 10.1358 12.6421 10.2517L14.3787 10.7059V11.5541C14.3743 12.6157 13.4833 13.4826 12.3889 13.4826L12.3889 13.4826ZM9.69357 7.07646C9.7614 7.03011 9.83378 6.97444 9.9106 6.91422C10.2137 6.67314 10.5755 6.50636 10.9553 6.44136L11.5432 6.33478C11.8011 6.28843 12.0679 6.28843 12.3256 6.33013L13.0583 6.45067C13.4336 6.51089 13.7909 6.66858 14.1165 6.91888C14.1934 6.97909 14.2657 7.02545 14.3291 7.0718C14.5913 7.25722 14.6185 7.27574 14.6185 7.49832V8.3652C13.9808 8.20761 11.5298 7.69306 9.42672 8.37906V7.47981C9.43126 7.26656 9.45387 7.24804 9.69351 7.07648L9.69357 7.07646Z" fill="#A6A6A6" stroke="#A6A6A6" stroke-width="0.2"/>
<path d="M14.3608 14.908H9.63937C7.99322 14.908 6.6499 16.2801 6.6499 17.9721V18.4218C6.6499 18.6119 6.80364 18.7695 6.98909 18.7695C7.17453 18.7695 7.32827 18.6119 7.32827 18.4218V17.9721C7.32827 16.6695 8.36388 15.6034 9.63927 15.6034H14.3607C15.6361 15.6034 16.6717 16.6649 16.6717 17.9721V18.4218C16.6717 18.6119 16.8254 18.7695 17.0109 18.7695C17.1963 18.7695 17.3501 18.6119 17.3501 18.4218V17.9721C17.3456 16.2802 16.0069 14.908 14.3609 14.908H14.3608Z" fill="#A6A6A6" stroke="#A6A6A6" stroke-width="0.2"/>
</svg>
