<svg width="40" height="40" viewBox="0 0 40 40" fill="none" xmlns="http://www.w3.org/2000/svg">
<path d="M33.545 6.16246C33.4054 6.07157 33.2452 6.01702 33.0791 6.00374C32.9131 5.99047 32.7463 6.01891 32.594 6.08646L24.623 9.62939L15.729 6.07146C15.6049 6.02185 15.4721 5.99761 15.3385 6.00019C15.2049 6.00276 15.0731 6.0321 14.951 6.08646L6.594 9.80038C6.41718 9.87894 6.26695 10.0071 6.16151 10.1693C6.05608 10.3316 5.99998 10.5209 6 10.7144V32.9999C5.99998 33.1665 6.04159 33.3305 6.12104 33.4769C6.2005 33.6233 6.31528 33.7476 6.45497 33.8384C6.59466 33.9292 6.75482 33.9837 6.92091 33.9969C7.08699 34.01 7.25374 33.9815 7.406 33.9139L15.377 30.3709L24.271 33.9289C24.3952 33.978 24.528 34.002 24.6615 33.9994C24.7951 33.9968 24.9268 33.9677 25.049 33.9139L33.406 30.2C33.5828 30.1214 33.7331 29.9932 33.8385 29.831C33.9439 29.6688 34 29.4795 34 29.286V7.00044C33.9999 6.83393 33.9583 6.67006 33.8788 6.52373C33.7994 6.37739 33.6846 6.25321 33.545 6.16246ZM16.357 8.47741L23.643 11.3924V31.5229L16.357 28.608V8.47741ZM8 11.3644L14.357 8.53941V28.639L8 31.4609V11.3644ZM32 28.636L25.643 31.4609V11.3644L32 8.53941V28.636Z" fill="white"/>
</svg>
