<svg width="16" height="16" viewBox="0 0 16 16" fill="none" xmlns="http://www.w3.org/2000/svg">
<path d="M8 4.5C6.5 4.5 4.5 6 4.5 8C4.5 10 6.5 11.5 8 11.5C9.5 11.5 11.5 10 11.5 8C11.5 6 9.5 4.5 8 4.5ZM14.5018 7.27273C14.1673 4.24 11.76 1.83273 8.72727 1.49818V0H7.27273V1.49818C4.24 1.83273 1.83273 4.24 1.49818 7.27273H0V8.72727H1.49818C1.83273 11.76 4.24 14.1673 7.27273 14.5018V16H8.72727V14.5018C11.76 14.1673 14.1673 11.76 14.5018 8.72727H16V7.27273H14.5018ZM8 13.0909C5.18545 13.0909 2.90909 10.8145 2.90909 8C2.90909 5.18545 5.18545 2.90909 8 2.90909C10.8145 2.90909 13.0909 5.18545 13.0909 8C13.0909 10.8145 10.8145 13.0909 8 13.0909Z" fill="#585858"/>
</svg>
