<svg width="40" height="40" viewBox="0 0 40 40" fill="none" xmlns="http://www.w3.org/2000/svg">
<path fill-rule="evenodd" clip-rule="evenodd" d="M24.8838 8.27908V33.0233C24.8838 33.5625 24.4462 34.0001 23.907 34.0001H8.27908C7.6748 34.0001 7.09526 33.7604 6.66809 33.332C6.23963 32.9048 6 32.3253 6 31.721V8.27908C6 7.6748 6.23963 7.09526 6.66809 6.66809C7.09526 6.23963 7.6748 6 8.27908 6H22.6047C23.209 6 23.7885 6.23963 24.2157 6.66809C24.6441 7.09526 24.8838 7.6748 24.8838 8.27908ZM22.9303 8.27908C22.9303 8.19312 22.8964 8.10977 22.8352 8.04856C22.774 7.98735 22.6907 7.95349 22.6047 7.95349H8.27908C8.19312 7.95349 8.10977 7.98735 8.04856 8.04856C7.98735 8.10977 7.95349 8.19312 7.95349 8.27908V31.721C7.95349 31.807 7.98735 31.8903 8.04856 31.9515C8.10977 32.0127 8.19312 32.0466 8.27908 32.0466H22.9303V8.27908Z" fill="white"/>
<path fill-rule="evenodd" clip-rule="evenodd" d="M19.6746 24.5581V33.0232C19.6746 33.5624 19.237 34 18.6979 34H12.1862C11.6471 34 11.2095 33.5624 11.2095 33.0232V24.5581C11.2095 24.1257 11.3814 23.7129 11.6861 23.4068C11.9922 23.1021 12.4063 22.9302 12.8374 22.9302H18.0467C18.4778 22.9302 18.8919 23.1021 19.198 23.4068C19.5027 23.7129 19.6746 24.1257 19.6746 24.5581ZM13.163 24.8837V32.0465H17.7211V24.8837H13.163Z" fill="white"/>
<path fill-rule="evenodd" clip-rule="evenodd" d="M34 16.093V31.721C34 32.9803 32.9789 34.0001 31.7209 34.0001H23.9069C23.3678 34.0001 22.9302 33.5625 22.9302 33.0233V14.7907C22.9302 14.2515 23.3678 13.814 23.9069 13.814H31.7209C32.9789 13.814 34 14.8337 34 16.093ZM32.0465 16.093C32.0465 15.9133 31.9006 15.7675 31.7209 15.7675H24.8837V32.0466H31.7209C31.9006 32.0466 32.0465 31.9007 32.0465 31.721V16.093Z" fill="white"/>
<path fill-rule="evenodd" clip-rule="evenodd" d="M10.5581 10.2325H12.5116V12.186H10.5581V10.2325Z" fill="white"/>
<path fill-rule="evenodd" clip-rule="evenodd" d="M10.5581 14.7906H12.5116V16.7441H10.5581V14.7906Z" fill="white"/>
<path fill-rule="evenodd" clip-rule="evenodd" d="M10.5581 19.3489H12.5116V21.3024H10.5581V19.3489Z" fill="white"/>
<path fill-rule="evenodd" clip-rule="evenodd" d="M14.4653 10.2325H16.4188V12.186H14.4653V10.2325Z" fill="white"/>
<path fill-rule="evenodd" clip-rule="evenodd" d="M14.4653 14.7906H16.4188V16.7441H14.4653V14.7906Z" fill="white"/>
<path fill-rule="evenodd" clip-rule="evenodd" d="M14.4653 19.3489H16.4188V21.3024H14.4653V19.3489Z" fill="white"/>
<path fill-rule="evenodd" clip-rule="evenodd" d="M18.3726 10.2325H20.3261V12.186H18.3726V10.2325Z" fill="white"/>
<path fill-rule="evenodd" clip-rule="evenodd" d="M27.4888 18.3722H29.4423V20.3257H27.4888V18.3722Z" fill="white"/>
<path fill-rule="evenodd" clip-rule="evenodd" d="M27.4888 22.9302H29.4423V24.8837H27.4888V22.9302Z" fill="white"/>
<path fill-rule="evenodd" clip-rule="evenodd" d="M27.4888 27.4884H29.4423V29.4419H27.4888V27.4884Z" fill="white"/>
<path fill-rule="evenodd" clip-rule="evenodd" d="M18.3726 14.7906H20.3261V16.7441H18.3726V14.7906Z" fill="white"/>
<path fill-rule="evenodd" clip-rule="evenodd" d="M18.3726 19.3489H20.3261V21.3024H18.3726V19.3489Z" fill="white"/>
</svg>
