<svg width="19" height="20" viewBox="0 0 19 20" fill="none" xmlns="http://www.w3.org/2000/svg">
<path d="M17.3333 14.1V16.6C17.3343 16.8321 17.2867 17.0618 17.1938 17.2745C17.1008 17.4871 16.9644 17.678 16.7934 17.8349C16.6224 17.9918 16.4205 18.1113 16.2006 18.1856C15.9808 18.26 15.7478 18.2876 15.5167 18.2667C12.9524 17.9881 10.4892 17.1118 8.325 15.7084C6.31152 14.4289 4.60445 12.7219 3.325 10.7084C1.91665 8.53438 1.0402 6.0592 0.766667 3.48337C0.745842 3.25293 0.773229 3.02067 0.847084 2.80139C0.920938 2.58211 1.03964 2.38061 1.19564 2.20972C1.35163 2.03883 1.5415 1.9023 1.75316 1.80881C1.96481 1.71532 2.19362 1.66692 2.425 1.66671H4.925C5.32942 1.66273 5.72149 1.80594 6.02813 2.06965C6.33478 2.33336 6.53506 2.69958 6.59167 3.10004C6.69719 3.9001 6.89288 4.68565 7.175 5.44171C7.28712 5.73998 7.31139 6.06414 7.24492 6.37577C7.17846 6.68741 7.02405 6.97347 6.8 7.20004L5.74167 8.25837C6.92796 10.3447 8.65538 12.0721 10.7417 13.2584L11.8 12.2C12.0266 11.976 12.3126 11.8216 12.6243 11.7551C12.9359 11.6887 13.2601 11.7129 13.5583 11.825C14.3144 12.1072 15.0999 12.3029 15.9 12.4084C16.3048 12.4655 16.6745 12.6694 16.9388 12.9813C17.2031 13.2932 17.3435 13.6914 17.3333 14.1Z" stroke="#001429" stroke-width="1.5" stroke-linecap="round" stroke-linejoin="round"/>
</svg>
