<svg width="40" height="40" viewBox="0 0 40 40" fill="none" xmlns="http://www.w3.org/2000/svg">
<mask id="path-1-inside-1_458_36" fill="white">
<path d="M8 6H31C31.5523 6 32 6.44772 32 7V33C32 33.5523 31.5523 34 31 34H8V6Z"/>
</mask>
<path d="M8 6H31C31.5523 6 32 6.44772 32 7V33C32 33.5523 31.5523 34 31 34H8V6Z" stroke="white" stroke-width="3" mask="url(#path-1-inside-1_458_36)"/>
<line x1="16.25" y1="25.8815" x2="26.75" y2="25.8815" stroke="white" stroke-width="1.5" stroke-linecap="round"/>
<line x1="16.25" y1="28.829" x2="26.75" y2="28.829" stroke="white" stroke-width="1.5" stroke-linecap="round"/>
<line x1="11.75" y1="6" x2="11.75" y2="34" stroke="white" stroke-width="1.5"/>
<path d="M20.316 10.8512C20.3319 10.6732 20.4124 10.5077 20.5417 10.3872C20.671 10.2667 20.8398 10.1999 21.0149 10.2H21.728C22.0912 10.2 22.394 10.4822 22.4269 10.8512C22.4543 11.1536 22.6672 11.4012 22.9464 11.5081C23.0177 11.5355 23.089 11.5647 23.1587 11.596C23.4346 11.7181 23.7594 11.6946 23.9909 11.498C24.1286 11.3808 24.3044 11.3204 24.4835 11.3287C24.6627 11.337 24.8323 11.4134 24.9591 11.5428L25.4627 12.0569C25.5837 12.1804 25.6552 12.3456 25.663 12.5201C25.6708 12.6946 25.6144 12.8657 25.5049 12.9999C25.3157 13.2312 25.2981 13.5583 25.4254 13.8304C25.4802 13.948 25.5307 14.069 25.5757 14.1922C25.6799 14.4772 25.9224 14.6951 26.2192 14.7225C26.5807 14.7561 26.8572 15.0652 26.8572 15.4359V16.1639C26.8572 16.5347 26.5807 16.8438 26.2192 16.8774C25.9229 16.9054 25.6805 17.1227 25.5757 17.4077C25.5352 17.5177 25.4905 17.626 25.4418 17.7325C25.3239 17.9912 25.3431 18.2998 25.5219 18.5187C25.6267 18.6472 25.6807 18.811 25.6733 18.978C25.6659 19.145 25.5976 19.3032 25.4819 19.4215L24.9191 19.996C24.8032 20.1142 24.6483 20.1839 24.4847 20.1914C24.3211 20.199 24.1606 20.1439 24.0348 20.0369C23.8203 19.8543 23.518 19.8353 23.2651 19.9551C23.1609 20.005 23.0545 20.0503 22.9464 20.0918C22.6672 20.1982 22.4538 20.4457 22.4269 20.7487C22.411 20.9267 22.3305 21.0922 22.2012 21.2127C22.0719 21.3332 21.9031 21.4 21.728 21.3999H21.0149C20.8398 21.4 20.671 21.3332 20.5417 21.2127C20.4124 21.0922 20.3319 20.9267 20.316 20.7487C20.2886 20.4463 20.0757 20.1987 19.7965 20.0918C19.6763 20.0459 19.558 19.9947 19.4421 19.9383C19.1755 19.8084 18.8552 19.8263 18.6286 20.0195C18.4971 20.1313 18.3294 20.1889 18.1585 20.1809C17.9876 20.1729 17.8258 20.1 17.7048 19.9764L17.2012 19.4623C17.0744 19.3329 16.9996 19.1597 16.9915 18.9768C16.9834 18.7939 17.0425 18.6146 17.1573 18.4739C17.3499 18.2376 17.3729 17.9061 17.2533 17.6244C17.2228 17.5529 17.1941 17.4807 17.1672 17.4077C17.063 17.1227 16.8205 16.9048 16.5237 16.8774C16.3494 16.8612 16.1872 16.779 16.0692 16.647C15.9511 16.515 15.8857 16.3427 15.8857 16.1639V15.4359C15.8857 15.0652 16.1622 14.7561 16.5237 14.7225C16.82 14.6945 17.0624 14.4772 17.1672 14.1922C17.1987 14.1064 17.2327 14.0216 17.2692 13.9379C17.3982 13.6423 17.3768 13.2928 17.1738 13.0442C17.0544 12.898 16.9929 12.7115 17.0013 12.5214C17.0097 12.3312 17.0875 12.1512 17.2193 12.0166L17.6653 11.5613C17.7972 11.4267 17.9735 11.3474 18.1598 11.3388C18.346 11.3302 18.5287 11.393 18.6719 11.5148C18.9155 11.722 19.2578 11.7444 19.5475 11.6123C19.6292 11.5753 19.712 11.5406 19.7965 11.5081C20.0757 11.4017 20.2891 11.1542 20.316 10.8512V10.8512Z" stroke="white" stroke-width="1.5" stroke-linecap="round" stroke-linejoin="round"/>
<path d="M23.1996 15.8001C23.1996 16.2952 23.007 16.77 22.664 17.1201C22.3211 17.4701 21.856 17.6668 21.3711 17.6668C20.8861 17.6668 20.421 17.4701 20.0781 17.1201C19.7351 16.77 19.5425 16.2952 19.5425 15.8001C19.5425 15.3051 19.7351 14.8303 20.0781 14.4802C20.421 14.1301 20.8861 13.9335 21.3711 13.9335C21.856 13.9335 22.3211 14.1301 22.664 14.4802C23.007 14.8303 23.1996 15.3051 23.1996 15.8001Z" stroke="white" stroke-width="1.5" stroke-linecap="round" stroke-linejoin="round"/>
</svg>
