<svg width="30" height="30" viewBox="0 0 30 30" fill="none" xmlns="http://www.w3.org/2000/svg">
<path d="M1.5 13.9662L3.94397 10.0217C4.2931 9.47389 4.99138 9.03561 5.68966 9.03561H10.3448V9.17751C10.3448 7.4244 11.8578 6 13.7198 6H25.125C26.9871 6 28.5 7.4244 28.5 9.17751V20.9787C28.5 21.3074 28.1509 21.6361 27.8017 21.6361H25.5905C25.2414 23.2796 23.4957 24.2657 21.75 23.937C20.4698 23.7179 19.5388 22.7318 19.306 21.6361H9.76293C9.41379 23.2796 7.6681 24.2657 5.92241 23.937C4.75862 23.7179 3.71121 22.7318 3.47845 21.6361H2.19828C1.84914 21.6361 1.5 21.3074 1.5 20.9787V13.9662ZM20.7026 20.9787C20.7026 21.8552 21.5172 22.6222 22.4483 22.6222C23.3793 22.6222 24.194 21.8552 24.194 20.9787C24.194 20.1021 23.3793 19.3351 22.4483 19.3351C21.4009 19.3351 20.7026 19.9925 20.7026 20.9787ZM11.7414 9.69303V20.3212H19.306C19.6552 18.6777 21.4009 17.6916 23.1466 18.0203C24.4267 18.2394 25.3578 19.2255 25.5905 20.3212H27.1034V9.17751C27.1034 8.19138 26.1724 7.31483 25.125 7.31483H13.7198C12.6724 7.31483 11.7414 8.19138 11.7414 9.17751V9.69303ZM10.3448 10.3504H5.68966C5.4569 10.3504 5.22414 10.46 5.10776 10.6792L3.47845 13.3088H10.3448V10.3504ZM6.62069 22.7318C7.6681 22.7318 8.48276 21.9648 8.48276 20.9787C8.48276 19.9925 7.6681 19.2255 6.62069 19.2255C5.57327 19.2255 4.75862 19.9925 4.75862 20.9787C4.75862 21.9648 5.57327 22.7318 6.62069 22.7318ZM2.89655 20.3212H3.47845C3.82759 18.6777 5.57328 17.6916 7.31897 18.0203C8.59914 18.2394 9.53017 19.2255 9.76293 20.3212H10.3448V14.6236H2.89655V20.3212Z" fill="#001429"/>
</svg>
