<svg width="22" height="16" viewBox="0 0 22 16" fill="none" xmlns="http://www.w3.org/2000/svg">
<path d="M21.8002 7.17303L19.845 4.01744C19.5657 3.57916 19.0071 3.22854 18.4485 3.22854H14.7243V3.34205C14.7243 1.93957 13.514 0.800049 12.0243 0.800049H2.9002C1.41054 0.800049 0.200195 1.93957 0.200195 3.34205V12.783C0.200195 13.0459 0.479506 13.3089 0.758816 13.3089H2.52778C2.80709 14.6237 4.20364 15.4126 5.60019 15.1497C6.62433 14.9744 7.36916 14.1855 7.55537 13.3089H15.1899C15.4692 14.6237 16.8657 15.4126 18.2623 15.1497C19.1933 14.9744 20.0312 14.1855 20.2174 13.3089H21.2416C21.5209 13.3089 21.8002 13.0459 21.8002 12.783V7.17303ZM6.43813 12.783C6.43813 13.4842 5.7864 14.0978 5.04157 14.0978C4.29675 14.0978 3.64502 13.4842 3.64502 12.783C3.64502 12.0817 4.29675 11.4681 5.04157 11.4681C5.87951 11.4681 6.43813 11.9941 6.43813 12.783ZM13.6071 3.75447V12.257H7.55537C7.27606 10.9422 5.87951 10.1533 4.48295 10.4163C3.45882 10.5916 2.71399 11.3805 2.52778 12.257H1.31744V3.34205C1.31744 2.55316 2.06226 1.85191 2.9002 1.85191H12.0243C12.8623 1.85191 13.6071 2.55316 13.6071 3.34205V3.75447ZM14.7243 4.2804H18.4485C18.6347 4.2804 18.8209 4.36806 18.914 4.54337L20.2174 6.6471H14.7243V4.2804ZM17.7036 14.1855C16.8657 14.1855 16.214 13.5719 16.214 12.783C16.214 11.9941 16.8657 11.3805 17.7036 11.3805C18.5416 11.3805 19.1933 11.9941 19.1933 12.783C19.1933 13.5719 18.5416 14.1855 17.7036 14.1855ZM20.683 12.257H20.2174C19.9381 10.9422 18.5416 10.1533 17.145 10.4163C16.1209 10.5916 15.3761 11.3805 15.1899 12.257H14.7243V7.69896H20.683V12.257Z" fill="#A6A6A6"/>
</svg>
